<?xml version="1.0" encoding="utf-8"?>
<svg viewBox="0 0 500 500" xmlns="http://www.w3.org/2000/svg">
  <g id="Colours" transform="matrix(1, 0, 0, 1, -40.363586, -62.326641)">
    <path id="Down" class="st0" d="M297.6,380.9c-40.4,0-74.1-28.6-82.1-66.6H81.1c9.5,110.5,102.2,197.2,215.1,197.2 s205.7-86.7,215.1-197.2H379.7C371.7,352.4,338,380.9,297.6,380.9z" style="fill: rgb(243, 244, 246);"/>
    <path id="Shadow_Down" class="st1" d="M345.6,505.9c89.6-21,157.7-97.7,165.7-191.6h-53C453,399.5,408.3,471.7,345.6,505.9z" style="fill: rgb(243, 244, 246);"/>
    <path id="Center" class="st0" d="M347.1,297L347.1,297C347,297,347,297,347.1,297c-0.1-6.1-1.2-11.9-3.2-17.3 c-7-18.8-25.1-32.1-46.3-32.1s-39.3,13.4-46.3,32.1c-2,5.4-3.1,11.2-3.1,17.3c0,0,0,0,0,0h0.1c0,0,0,0,0,0 c0,6.1,1.1,11.9,3.1,17.3c7,18.8,25.1,32.1,46.3,32.1c21.2,0,39.3-13.4,46.3-32.1C346,309,347.1,303.1,347.1,297 C347.1,297,347.1,297,347.1,297z" style="fill: rgb(243, 244, 246);"/>
    <path id="Up" class="st2" d="M297.7,213.2c40.4,0,74.1,28.6,82.1,66.6h134.4C504.7,169.2,412,82.5,299,82.5S93.4,169.2,83.9,279.7 h131.7C223.6,241.7,257.3,213.2,297.7,213.2z" style="fill: rgb(254, 243, 199);"/>
    <path id="Shadow_Up" class="st3" d="M458.3,279.7h55.8c-8.2-95.5-78.6-173.3-170.5-192.6C407.4,120.8,452.9,193.7,458.3,279.7z" style="fill: rgb(254, 243, 199);"/>
    <path id="Line" class="st4" d="M 299 82.5 C 412 82.5 504.7 169.2 514.1 279.7 L 379.7 279.7 C 371.7 241.7 338 213.1 297.6 213.1 C 257.2 213.1 223.5 241.7 215.5 279.7 L 83.9 279.7 C 93.4 169.2 186.1 82.5 299 82.5 Z M 343.9 279.7 C 345.9 285.1 347 290.9 347 297 L 347.1 297 C 347.1 303.1 346 308.9 344 314.3 C 337 333.1 318.9 346.4 297.7 346.4 C 276.5 346.4 258.4 333 251.4 314.3 C 249.4 308.9 248.3 303.1 248.3 297 L 248.2 297 C 248.2 290.9 249.3 285.1 251.3 279.7 C 258.3 260.9 276.4 247.6 297.6 247.6 C 318.8 247.6 336.9 261 343.9 279.7 Z M 296.2 511.6 C 183.2 511.6 90.5 424.9 81.1 314.4 L 215.5 314.4 C 223.5 352.4 257.2 381 297.6 381 C 338 381 371.7 352.4 379.7 314.4 L 511.4 314.4 C 501.9 424.8 409.2 511.6 296.2 511.6 Z M 299.108 75.973 C 169.649 76.569 74.208 175.665 72.553 295.994 C 70.898 416.323 160.373 518.537 296.092 520.54 C 431.811 522.543 521.822 407.351 523.752 297.503 C 525.682 187.655 433.815 75.352 299.108 75.973 Z" style="fill: rgb(229, 230, 233); stroke-miterlimit: 5; paint-order: fill; stroke-width: 0px;"/>
  </g>
</svg>